PathFileType	4	(X/Y/Z)	C:/Users/opensim2020/Desktop/walking_exp_matlab/subject01_walking09_straight_01.trc	
DataRate	CameraRate	NumFrames	NumMarkers	Units	OrigDataRate	OrigDataStartFrame	OrigNumFrames	
100.00	100.00	7	43	mm	100.00	1135	485	
Frame#	Time	LFHD			RFHD			LBHD			RBHD			C7			T10			CLAV			STRN			RBAK			LSHO			LUPA			LELB			LFRM			LWRA			LWRB			LFIN			RSHO			RUPA			RELB			RFRM			RWRA			RWRB			RFIN			LASI			RASI			LPSI			RPSI			LTHI			LKNE			LTIB			LANK			LHEE			LTOE			RTHI			RKNE			RTIB			RANK			RHEE			RTOE			*39			*40			*41			*42			
		X1	Y1	Z1	X2	Y2	Z2	X3	Y3	Z3	X4	Y4	Z4	X5	Y5	Z5	X6	Y6	Z6	X7	Y7	Z7	X8	Y8	Z8	X9	Y9	Z9	X10	Y10	Z10	X11	Y11	Z11	X12	Y12	Z12	X13	Y13	Z13	X14	Y14	Z14	X15	Y15	Z15	X16	Y16	Z16	X17	Y17	Z17	X18	Y18	Z18	X19	Y19	Z19	X20	Y20	Z20	X21	Y21	Z21	X22	Y22	Z22	X23	Y23	Z23	X24	Y24	Z24	X25	Y25	Z25	X26	Y26	Z26	X27	Y27	Z27	X28	Y28	Z28	X29	Y29	Z29	X30	Y30	Z30	X31	Y31	Z31	X32	Y32	Z32	X33	Y33	Z33	X34	Y34	Z34	X35	Y35	Z35	X36	Y36	Z36	X37	Y37	Z37	X38	Y38	Z38	X39	Y39	Z39	X40	Y40	Z40	X41	Y41	Z41	X42	Y42	Z42	X43	Y43	Z43	

364	3.630	-1064.37720	663.87067	1674.88184	-950.14435	674.85718	1682.45459	-1058.57056	555.68158	1612.97009	-937.61591	564.23822	1619.47156	-1010.79327	536.73938	1431.14612	-993.57715	504.95355	1137.32837	-1010.26941	679.89496	1362.02820	-1011.48273	724.29028	1207.07031	-926.13434	484.98602	1237.79810	-1171.37378	615.14453	1387.84167	-1245.76294	575.26514	1200.05457	-1238.42627	555.85913	1051.79370	-1264.29004	582.13788	942.30542	-1250.86365	649.86481	819.22205	-1271.08789	593.16162	820.51331	-1282.50110	632.29614	745.32202	-858.20184	620.25702	1393.84216	-749.88184	575.78363	1194.06775	-745.05994	584.25806	1067.97119	-719.03949	630.20074	955.02942	-745.85504	724.94293	852.88470	-704.98352	684.74738	845.86603	-708.71600	734.97247	777.01837	-1097.38867	679.57117	931.71338	-880.11456	671.83521	925.52258	-1054.98303	491.22089	945.97211	-910.79425	488.91324	951.16443	-1160.71265	709.00604	611.73047	-1142.19727	729.73932	481.34232	-1155.37976	715.40521	291.85156	-1105.13672	732.91571	73.77330	-1050.25842	694.04352	43.69144	-1113.72217	881.10333	45.03071	-831.59387	560.28687	601.88446	-854.03619	532.71124	442.73657	-847.98242	414.83432	309.56360	-894.44257	311.71738	128.01279	-945.16699	253.49791	111.38416	-900.04950	424.28918	37.20884	-973.28992	657.74701	1713.66418	-3102.00586	1973.08435	1023.38995	-3140.73535	2012.51697	1022.07336			 
365	3.640	-1066.26831	671.20386	1675.69507	-952.13690	681.93085	1683.20911	-1060.94873	562.63214	1614.44141	-939.83740	570.98743	1620.83105	-1012.78784	543.18842	1431.89905	-995.57104	511.31964	1137.83984	-1012.45764	686.46570	1363.11670	-1013.55969	731.30383	1208.26465	-928.15161	491.76553	1238.40881	-1173.60266	621.65790	1388.77283	-1248.04065	582.55701	1200.87378	-1240.80408	564.10785	1052.53113	-1266.39734	591.38171	943.13422	-1252.35522	659.90540	820.57294	-1273.07520	603.43286	821.48212	-1284.32458	643.23492	746.63232	-860.44525	626.50299	1394.72168	-751.84479	581.68561	1195.19971	-747.42767	589.84131	1069.01392	-721.15662	635.00934	955.79285	-747.81134	729.01123	852.93762	-706.76910	689.00049	846.42755	-710.55194	738.60297	777.05847	-1099.29260	687.29968	932.40015	-882.18427	679.26782	926.35596	-1056.90784	498.97293	946.96234	-912.51538	496.68500	952.21704	-1162.32788	714.72046	611.89142	-1143.31946	735.15729	481.44913	-1156.02661	719.18463	291.93564	-1105.07703	733.57593	73.98190	-1050.15759	694.15613	43.76687	-1113.35425	881.63702	44.21452	-833.07288	569.52936	602.24792	-854.66498	542.44379	443.03729	-848.76831	421.87161	312.51019	-894.25574	315.69791	132.31342	-945.91992	257.40784	117.35458	-899.89825	424.86276	37.37912	-975.33496	664.81354	1714.41467	-3101.80469	1973.12646	1023.61719	-3140.71021	2012.37732	1021.89606			 
366	3.650	-1068.33850	678.42749	1676.55945	-954.11865	688.97626	1683.95398	-1063.24487	569.53088	1615.83118	-942.06787	577.65991	1622.10461	-1015.32013	549.65063	1432.58386	-997.57861	518.51282	1138.47681	-1014.56726	692.94763	1364.19934	-1015.62164	738.22095	1209.50037	-930.18048	498.48764	1239.03613	-1175.76184	628.19592	1389.70691	-1250.34644	589.82214	1201.79236	-1243.23083	572.38934	1053.28918	-1268.56616	600.67914	943.98071	-1253.82837	670.17902	822.07251	-1275.06897	613.82715	822.51031	-1285.75012	654.40839	748.01324	-862.55359	632.81433	1395.71594	-753.86047	587.61975	1196.42200	-749.76440	595.39050	1070.02271	-723.22754	639.77228	956.55389	-749.73181	733.33051	853.19440	-708.75720	692.88110	846.78058	-712.44922	742.11310	777.02649	-1101.25366	694.92999	933.05475	-884.33630	686.64972	927.34344	-1058.89868	506.89404	947.83264	-914.39392	504.22424	953.06592	-1163.40564	720.34631	611.89020	-1144.14722	740.12262	481.41006	-1156.45520	722.64301	291.97675	-1105.04016	734.25507	74.19794	-1050.25940	694.29169	43.86952	-1113.13879	882.30768	43.57068	-834.52185	579.09088	602.48724	-854.98590	553.20880	443.21829	-849.61194	429.22516	315.45117	-894.76849	320.12463	136.89555	-946.77850	262.37170	123.59664	-900.37573	425.59595	37.51064	-977.24261	672.28912	1715.45044	-3101.88647	1973.14502	1023.55664	-3140.84644	2012.50439	1021.90253			 
367	3.660	-1070.22009	685.63147	1677.35840	-955.99133	695.86328	1684.73254	-1065.41882	576.44257	1617.08972	-944.33179	584.29944	1623.29993	-1017.25635	556.16748	1433.34131	-999.71484	525.49103	1139.10583	-1016.65320	699.41498	1365.25708	-1017.62152	745.09045	1210.68921	-932.31714	505.11548	1239.76416	-1177.81018	634.82965	1390.64893	-1252.73975	597.14825	1202.73987	-1245.70935	580.66528	1053.95313	-1270.77014	610.09546	944.89264	-1255.51563	680.65778	823.74792	-1276.91431	624.40900	823.55029	-1287.44568	665.62274	749.43646	-864.77374	639.09766	1396.67859	-755.89874	593.54993	1197.60950	-751.99512	600.89551	1071.07690	-725.32007	644.58740	957.39124	-751.58478	737.40692	853.17725	-710.64514	697.09369	847.25696	-714.34796	745.63818	777.03589	-1103.24365	702.42596	933.77466	-886.49713	693.80646	928.39709	-1060.97949	514.11981	948.94769	-916.40576	511.42023	954.05988	-1164.61401	726.25995	611.91754	-1145.08130	744.96191	481.30646	-1156.79773	725.62061	291.96341	-1104.97864	734.72589	74.25477	-1050.23950	694.51917	44.05978	-1112.94434	882.92334	43.00571	-835.59497	589.27155	602.72888	-854.96899	564.71027	443.20499	-850.38800	438.00922	318.21887	-895.16742	325.81607	141.51888	-948.00159	268.06549	130.26848	-900.69672	426.51730	37.66148	-979.14514	679.17340	1716.06738	-3101.81543	1973.11975	1023.42169	-3140.70288	2012.57214	1022.11237			 
368	3.670	-1072.22412	692.71741	1678.17078	-957.77429	702.76874	1685.43628	-1067.59521	583.37128	1618.22156	-946.46808	590.94055	1624.37769	-1019.62091	562.55017	1434.01990	-1002.02203	532.41400	1139.79761	-1018.63251	705.91534	1366.24744	-1019.57367	751.84247	1211.75183	-934.51105	511.68173	1240.36792	-1179.90027	641.46503	1391.54626	-1255.16260	604.53064	1203.70984	-1248.30164	589.04858	1054.77942	-1272.98108	619.61926	945.84784	-1256.60095	690.97211	825.25702	-1278.85962	635.06573	824.62500	-1289.01221	677.13110	750.97363	-866.77057	645.36340	1397.58386	-758.00446	599.26733	1198.63147	-754.23633	606.28290	1072.13684	-727.34045	649.37006	958.16461	-753.51300	741.40430	853.25696	-712.45074	701.01007	847.62482	-716.28320	749.17676	777.05554	-1105.16736	709.74249	934.45624	-888.62195	700.88904	929.52588	-1063.03308	521.40552	949.78784	-918.40393	518.50598	954.95099	-1165.61230	730.90814	611.86444	-1146.14575	749.48944	481.12564	-1157.15674	728.11053	291.82233	-1105.09302	734.97699	74.10445	-1050.29541	694.58850	44.05307	-1112.81653	883.30817	42.46308	-836.43048	599.94312	602.78534	-854.64771	576.76123	443.16486	-851.20819	447.11996	320.81250	-895.70142	331.72742	146.60515	-949.32233	274.57837	137.04160	-901.17090	427.57535	37.91497	-981.10907	686.42413	1717.07056	-3101.91455	1973.14099	1023.25446	-3140.72510	2012.53943	1022.12109			 
369	3.680	-1073.96106	699.77368	1678.84534	-959.67267	709.48047	1686.07288	-1069.77832	590.21185	1619.22375	-948.61804	597.45966	1625.33948	-1021.67017	568.94574	1434.67139	-1004.31836	539.12701	1140.42200	-1020.61041	712.35620	1367.14905	-1021.49298	758.49664	1212.72742	-936.76190	518.19666	1241.04749	-1181.81763	648.18591	1392.42957	-1257.53394	612.01123	1204.65759	-1250.87683	597.40747	1055.51196	-1275.21204	629.24994	946.77283	-1258.04419	701.63062	826.92810	-1280.90149	645.93390	825.71051	-1290.40540	688.81097	752.42950	-868.96350	651.63812	1398.47168	-760.10870	604.82507	1199.51245	-756.44263	611.79230	1073.07996	-729.42963	653.99493	958.91559	-755.45129	745.47333	853.30280	-714.28650	705.08978	848.17944	-718.19836	752.66388	777.09351	-1107.12549	716.92615	935.14197	-890.71503	707.76447	930.63141	-1065.08069	528.60364	950.53101	-920.58490	525.37585	955.59827	-1166.75378	735.96118	611.71484	-1147.31360	753.69885	480.93637	-1157.65454	730.20636	291.58545	-1104.89246	735.17908	74.06928	-1050.23645	694.59479	43.90756	-1112.75659	883.93414	42.12876	-837.05945	610.97845	602.75873	-854.25238	589.44489	443.03790	-851.67377	457.23618	323.30963	-896.42944	338.38400	151.41235	-950.93427	282.04559	144.02850	-901.92175	428.79178	38.26927	-982.94293	693.09906	1717.58826	-3101.92188	1973.13672	1023.44604	-3140.67822	2012.63879	1022.13794			 
370	3.690	-1075.91272	706.77777	1679.48267	-961.39178	716.18610	1686.63953	-1071.89148	597.05969	1620.13745	-950.70465	603.98315	1626.18225	-1023.88092	575.30634	1435.32495	-1006.75714	545.78937	1141.09949	-1022.43890	718.72528	1367.93005	-1023.34863	765.07642	1213.60303	-939.07764	524.57104	1241.61719	-1183.78625	654.92957	1393.28748	-1259.86768	619.67615	1205.56628	-1253.41528	605.79199	1056.27612	-1277.45923	638.90924	947.68018	-1259.53479	712.24591	828.58331	-1283.02856	656.86603	826.86127	-1292.06189	700.60748	753.99518	-870.96979	657.79083	1399.26770	-762.39136	610.68604	1200.48059	-758.64850	617.20776	1073.97070	-731.39386	658.61169	959.60767	-757.49084	749.23212	853.30396	-716.15875	709.06329	848.49152	-720.12494	756.08923	777.01123	-1109.07446	723.91272	935.79382	-892.71320	714.34045	931.68658	-1067.23938	535.53235	951.19043	-922.71326	531.90118	955.89020	-1168.14026	741.10925	611.88678	-1148.63904	757.54340	480.65826	-1158.25085	731.95197	291.31195	-1104.87476	735.17175	73.80247	-1050.30334	694.62512	44.02743	-1112.88513	884.28729	41.72168	-837.37701	622.47455	602.78302	-853.86743	602.23364	442.94638	-852.41913	468.28271	325.63614	-897.22888	345.79404	156.49083	-952.37701	289.91763	151.36775	-902.58136	430.51355	39.08415	-984.75659	700.24243	1718.37012	-3101.85205	1973.10925	1023.27374	-3140.73999	2012.51379	1021.98987			 
